<svg width="22" height="28" viewBox="0 0 22 28" fill="none" xmlns="http://www.w3.org/2000/svg">
<path d="M10.6807 14.9052C10.707 14.9052 10.7332 14.9052 10.7647 14.9052C10.7751 14.9052 10.7856 14.9052 10.7961 14.9052C10.8119 14.9052 10.8328 14.9052 10.8486 14.9052C12.3854 14.8766 13.6285 14.2866 14.5463 13.1581C16.5657 10.672 16.23 6.41005 16.1933 6.00333C16.0622 2.95011 14.7404 1.48938 13.6494 0.8077C12.8364 0.297875 11.8871 0.0229135 10.8276 0H10.7909C10.7856 0 10.7751 0 10.7699 0H10.7384C10.1562 0 9.0128 0.103111 7.91659 0.784787C6.81512 1.46646 5.47239 2.9272 5.34126 6.00333C5.30455 6.41005 4.96887 10.672 6.98821 13.1581C7.90085 14.2866 9.14393 14.8766 10.6807 14.9052ZM6.74169 6.14654C6.74169 6.12936 6.74694 6.11217 6.74694 6.10072C6.92003 1.99347 9.58976 1.55239 10.7332 1.55239H10.7542C10.7647 1.55239 10.7804 1.55239 10.7961 1.55239C12.2123 1.58676 14.6198 2.21688 14.7824 6.10072C14.7824 6.1179 14.7824 6.13509 14.7876 6.14654C14.7929 6.18664 15.16 10.0819 13.4921 12.1327C12.8312 12.9461 11.95 13.3471 10.7909 13.3586C10.7804 13.3586 10.7751 13.3586 10.7647 13.3586C10.7542 13.3586 10.7489 13.3586 10.7384 13.3586C9.58451 13.3471 8.6981 12.9461 8.04247 12.1327C6.37978 10.0934 6.73645 6.18091 6.74169 6.14654Z" fill="white"/>
<path d="M21.543 21.974C21.543 21.9683 21.543 21.9626 21.543 21.9568C21.543 21.911 21.5377 21.8652 21.5377 21.8136C21.5062 20.6794 21.4381 18.0272 19.1617 17.1794C19.146 17.1737 19.125 17.1679 19.1092 17.1622C16.7437 16.5034 14.7768 15.0141 14.7558 14.9969C14.4359 14.7506 13.9953 14.8365 13.7698 15.1859C13.5442 15.5353 13.6229 16.0165 13.9428 16.2628C14.032 16.3316 16.1196 17.9183 18.7316 18.6516C19.9537 19.127 20.0901 20.5534 20.1268 21.8595C20.1268 21.911 20.1268 21.9568 20.132 22.0027C20.1373 22.5182 20.1058 23.3145 20.0219 23.7727C19.1722 24.2997 15.8416 26.1214 10.7748 26.1214C5.72905 26.1214 2.37745 24.294 1.5225 23.767C1.43858 23.3087 1.40186 22.5125 1.41235 21.9969C1.41235 21.9511 1.4176 21.9053 1.4176 21.8537C1.45431 20.5477 1.59069 19.1213 2.81279 18.6458C5.42484 17.9126 7.51238 16.3201 7.60155 16.2571C7.9215 16.0108 8.00017 15.5296 7.77463 15.1802C7.5491 14.8308 7.10851 14.7448 6.78856 14.9911C6.76758 15.0083 4.81116 16.4977 2.43514 17.1565C2.41416 17.1622 2.39843 17.1679 2.38269 17.1737C0.106329 18.0272 0.0381432 20.6794 0.00667272 21.8079C0.00667272 21.8595 0.0066726 21.9053 0.00142752 21.9511C0.00142752 21.9568 0.00142752 21.9626 0.00142752 21.9683C-0.00381755 22.2662 -0.00906252 23.7956 0.268927 24.5633C0.321377 24.7122 0.415789 24.8382 0.541671 24.9241C0.699023 25.0387 4.47023 27.6623 10.7801 27.6623C17.0899 27.6623 20.8611 25.033 21.0185 24.9241C21.1391 24.8382 21.2387 24.7122 21.2912 24.5633C21.5535 23.8014 21.5482 22.2719 21.543 21.974Z" fill="white"/>
</svg>
